# AST/ASF file generated using VICON BodyLanguage
# -----------------------------------------------
:version 1.10
:name VICON
:units
  mass 1.0
  length 0.45
  angle deg
:documentation
   .ast/.asf automatically generated from VICON data using
   VICON BodyBuilder and BodyLanguage model FoxedUp or BRILLIANT.MOD
:root
   order TX TY TZ RX RY RZ
   axis XYZ
   position 0 0 0  
   orientation 0 0 0 
:bonedata
  begin
     id 1 
     name lhipjoint
     direction 0.573633 -0.743009 0.344793 
     length 2.46257 
     axis 0 0 0  XYZ
  end
  begin
     id 2 
     name lfemur
     direction 0.34202 -0.939693 0  
     length 7.3842  
     axis 0 0 20  XYZ
    dof rx ry rz
    limits (-160.0 20.0)
           (-70.0 70.0)
           (-60.0 70.0)
  end
  begin
     id 3 
     name ltibia
     direction 0.34202 -0.939693 0   
     length 7.50407   
     axis 0 0 20   XYZ
    dof rx
    limits (-10.0 170.0)
  end
  begin
     id 4 
     name lfoot
     direction 0.110749 -0.304281 0.946123   
     length 1.95925   
     axis -90 7.62852e-016 20   XYZ
    dof rx rz
    limits (-45.0 90.0)
           (-70.0 20.0)
  end
  begin
     id 5 
     name ltoes
     direction 1.53554e-011 -4.21843e-011 1   
     length 0.978318   
     axis -90 7.62852e-016 20   XYZ
    dof rx
    limits (-90.0 20.0)
  end
  begin
     id 6 
     name rhipjoint
     direction -0.488109 -0.791693 0.367385   
     length 2.31113  
     axis 0 0 0  XYZ 
  end
  begin
     id 7 
     name rfemur
     direction -0.34202 -0.939693 0   
     length 7.40965   
     axis 0 0 -20   XYZ
    dof rx ry rz
    limits (-160.0 20.0)
           (-70.0 70.0)
           (-70.0 60.0)
  end
  begin
     id 8 
     name rtibia
     direction -0.34202 -0.939693 0   
     length 7.55548   
     axis 0 0 -20   XYZ
    dof rx
    limits (-10.0 170.0)
 end
 begin
     id 9 
     name rfoot
     direction -0.127594 -0.350561 0.927808   
     length 2.07199  
     axis -90 -7.62852e-016 -20   XYZ
    dof rx rz
    limits (-45.0 90.0)
           (-20.0 70.0)
  end
  begin
     id 10 
     name rtoes
     direction -1.53542e-011 -4.21909e-011 1   
     length 1.02667   
     axis -90 -7.62852e-016 -20   XYZ
    dof rx
    limits (-90.0 20.0)
  end
  begin
     id 11 
     name lowerback
     direction -0.0103342 0.997298 -0.0727278   
     length 2.02836   
     axis 0 0 0   XYZ
    dof rx ry rz
    limits (-20.0 45.0)
           (-30.0 30.0)
           (-30.0 30.0)
  end
  begin
     id 12 
     name upperback
     direction 0.0171146 0.999786 -0.011606   
     length 2.03179   
     axis 0 0 0   XYZ
    dof rx ry rz
    limits (-20.0 45.0)
           (-30.0 30.0)
           (-30.0 30.0)
  end
  begin
     id 13 
     name thorax
     direction 0.0216927 0.999513 0.0224343   
     length 2.03882   
     axis 0 0 0   XYZ
    dof rx ry rz
    limits (-20.0 45.0)
           (-30.0 30.0)
           (-30.0 30.0)
  end
  begin
     id 14 
     name lowerneck
     direction 0.000989287 0.993907 0.110221   
     length 1.75428   
     axis 0 0 0   XYZ
    dof rx ry rz
    limits (-20.0 45.0)
           (-30.0 30.0)
           (-30.0 30.0)
  end
  begin
     id 15 
     name upperneck
     direction -0.0172474 0.994813 -0.100253   
     length 1.77058   
     axis 0 0 0   XYZ
    dof rx ry rz
    limits (-20.0 45.0)
           (-30.0 30.0)
           (-30.0 30.0)
  end
  begin
     id 16
     name head
     direction -0.00486455 0.99894 -0.0457663  
     length 1.77427  
     axis 0 0 0   XYZ
    dof rx ry rz
    limits (-20.0 45.0)
           (-30.0 30.0)
           (-30.0 30.0)
  end
  begin
     id 17 
     name lclavicle
     direction 0.927314 0.333734 -0.169441  
     length 3.97584  
     axis 0 0 0   XYZ
    dof ry rz
    limits (-20.0 10.0)
           (0.0 20.0)
  end
  begin
     id 18 
     name lhumerus
     direction 1 -4.48965e-011 -3.25313e-028   
     length 4.76468   
     axis 180 -30 -90   XYZ
    dof rx ry rz
    limits (-60.0 90.0)
           (-90.0 90.0)
           (-90.0 90.0)
  end
  begin
     id 19
     name lradius
     direction 1 -4.48969e-011 -2.8465e-028   
     length 3.52712   
     axis -180 -30 -90   XYZ
    dof rx
    limits (-10.0 170.0)
  end
  begin
     id 20
     name lwrist
     direction 1 -4.4896e-011 -7.78665e-028   
     length 1.76356   
     axis 1.91374e-015 90 90   XYZ
    dof ry
    limits (-180.0 0.0)
 end
  begin
     id 21 
     name lhand
     direction 1 -4.48959e-011 -1.55733e-027   
     length 0.859564   
     axis 9.9371e-016 90 90   XYZ
    dof rx rz
    limits (-90.0 90.0)
           (-45.0 45.0)
  end
  begin
     id 22 
     name lfingers
     direction 1 -4.48965e-011 -3.11466e-027   
     length 0.693002   
     axis 1.98742e-015 90 90   XYZ
    dof rx
    limits (0.0 90.0)
  end
  begin
     id 23
     name lthumb
     direction 0.707107 -6.34948e-011 0.707107   
     length 0.995017   
     axis -90 45 2.85299e-015   XYZ
    dof rx rz
    limits (-45.0 45.0)
           (-45.0 45.0)
  end
  begin
     id 24 
     name rclavicle
     direction -0.899388 0.348209 -0.264294   
     length 3.68366  
     axis 0 0 0   XYZ 
    dof ry rz
    limits (-10.0 20.0)
           (-20.0 0.0)
  end
  begin
     id 25 
     name rhumerus
     direction -1 -4.48965e-011 -3.01536e-027  
     length 4.90577   
     axis 180 30 90   XYZ
    dof rx ry rz
    limits (-90.0 60.0)
           (-90.0 90.0)
           (-90.0 90.0)
  end
  begin
     id 26 
     name rradius
     direction -1 -4.48966e-011 3.93291e-027   
     length 3.42692   
     axis -180 30 90   XYZ
    dof rx
    limits (-10.0 170.0)
  end
  begin
     id 27 
     name rwrist
     direction -1 -4.48969e-011 -7.78665e-028   
     length 1.71346   
     axis 1.91374e-015 -90 -90   XYZ
    dof ry
    limits (-180.0 0.0)
  end
  begin
     id 28
     name rhand
     direction -1 -4.48967e-011 -1.55733e-027   
     length 0.740957   
     axis 9.9371e-016 -90 -90   XYZ
    dof rx rz
    limits (-90.0 90.0)
           (-45.0 45.0)
  end
  begin
     id 29
     name rfingers
     direction -1 -4.48949e-011 -3.11466e-027   
     length 0.597378   
     axis 1.98742e-015 -90 -90   XYZ
    dof rx
    limits (0.0 90.0)
  end
  begin
     id 30
     name rthumb
     direction -0.707107 -6.34931e-011 0.707107   
     length 0.857719   
     axis -90 -45 -2.85299e-015   XYZ
    dof rx rz
    limits (-45.0 45.0)
           (-45.0 45.0)
  end
:hierarchy
  begin
    root lhipjoint rhipjoint lowerback
    lhipjoint lfemur
    lfemur ltibia
    ltibia lfoot
    lfoot ltoes
    rhipjoint rfemur
    rfemur rtibia
    rtibia rfoot
    rfoot rtoes
    lowerback upperback
    upperback thorax
    thorax lowerneck lclavicle rclavicle
    lowerneck upperneck
    upperneck head
    lclavicle lhumerus
    lhumerus lradius
    lradius lwrist
    lwrist lhand lthumb
    lhand lfingers
    rclavicle rhumerus
    rhumerus rradius
    rradius rwrist
    rwrist rhand rthumb
    rhand rfingers
  end

#!OML:ASF E:\I on waltz\AllaLogoMonkeySwing\Project 1\Capture day 1\Session 1\Subject1.ASF
:FULLY-SPECIFIED
:DEGREES
194
root -1.82708 17.5875 31.5795 -3.41673 6.56831 -0.157401
lowerback 12.7163 2.59872 -1.24381
upperback 1.95438 3.22036 -1.04189
thorax -5.0737 1.60132 -0.933708
lowerneck -9.10064 12.1249 4.41974
upperneck 28.8038 19.7688 -9.47886
head 12.5127 8.35636 -1.45387
rclavicle -1.799e-014 -1.98785e-015
rhumerus -39.3005 -9.06064 -76.5531
rradius 45.9767
rwrist -2.57042
rhand -5.47588 -39.7194
rfingers 7.12502
rthumb 20.3361 -68.6747
lclavicle -1.799e-014 -1.98785e-015
lhumerus -36.1548 14.4709 87.8804
lradius 43.9007
lwrist -10.5053
lhand -16.7706 -21.9132
lfingers 7.12502
lthumb 9.45672 7.85463
rfemur -8.76504 -4.98564 14.1765
rtibia 29.9179
rfoot -6.3965 -7.55375
rtoes 30.7948
lfemur -9.85375 -3.31372 -9.71908
ltibia 25.039
lfoot -6.45805 -0.122036
ltoes -37.8253
195
root -1.78673 17.6564 31.7897 -3.31179 5.79106 -0.609365
lowerback 12.0932 2.97711 -0.403478
upperback 2.11705 3.8454 -1.04647
thorax -4.50121 1.90025 -1.46963
lowerneck -8.53227 12.5755 3.86122
upperneck 29.3446 20.177 -8.08695
head 12.399 8.64825 -0.850609
rclavicle 2.62396e-014 6.36111e-015
rhumerus -38.7828 -7.3072 -77.0263
rradius 48.8225
rwrist -2.66745
rhand -5.56639 -38.7204
rfingers 7.12502
rthumb 20.2491 -67.685
lclavicle 2.62396e-014 6.36111e-015
lhumerus -37.1925 14.8665 87.2999
lradius 44.7384
lwrist -5.19512
lhand -17.05 -19.574
lfingers 7.12502
lthumb 9.18714 10.2059
rfemur -7.34059 -4.62138 14.7012
rtibia 28.033
rfoot -6.60176 -7.9097
rtoes 28.6861
lfemur -8.28372 -4.60384 -8.7855
ltibia 19.5357
lfoot -3.15813 -1.31922
ltoes -35.3725
196
root -1.76652 17.6942 32.0064 -3.49317 4.68199 -1.35392
lowerback 11.6385 3.33213 0.212905
upperback 2.28262 4.4075 -0.838772
thorax -4.03692 2.17643 -1.64638
lowerneck -8.02849 13.1451 3.49493
upperneck 29.9778 20.7393 -6.73469
head 12.3673 9.01409 -0.267035
rclavicle 1.52567e-014 7.95139e-016
rhumerus -38.1426 -5.71078 -77.3526
rradius 51.6417
rwrist -2.9034
rhand -5.78487 -38.0503
rfingers 7.12502
rthumb 20.0391 -67.037
lclavicle 1.52567e-014 7.95139e-016
lhumerus -38.5357 15.4275 86.4802
lradius 45.6035
lwrist 0.587146
lhand -17.3724 -17.7787
lfingers 7.12502
lthumb 8.87601 12.0147
rfemur -5.78232 -3.62529 15.7288
rtibia 26.3714
rfoot -6.94964 -8.77633
rtoes 26.3311
lfemur -6.65409 -4.22069 -7.36275
ltibia 14.6462
lfoot 0.669935 -2.68295
ltoes -39.749
197
root -1.62204 17.7226 32.1547 -2.16413 4.35696 1.15852
lowerback 10.7165 3.43206 -0.804191
upperback 1.9443 4.38364 -1.8883
thorax -3.87561 2.17439 -2.11752
lowerneck -7.54141 13.6637 3.22282
upperneck 30.7449 21.2789 -5.54019
head 12.4173 9.35415 0.2442
rclavicle -7.88181e-014 1.39149e-014
rhumerus -37.5624 -4.32226 -77.4032
rradius 54.3725
rwrist -3.49819
rhand -6.04581 -37.5424
rfingers 7.12502
rthumb 19.7883 -66.555
lclavicle -7.88181e-014 1.39149e-014
lhumerus -40.0148 16.1565 85.4977
lradius 46.0296
lwrist 5.22531
lhand -17.3208 -16.8924
lfingers 7.12502
lthumb 8.9258 12.8988
rfemur -5.91527 -6.07183 11.8206
rtibia 25.7769
rfoot -7.71256 -6.50172
rtoes 23.6883
lfemur -7.03991 -3.07417 -11.2477
ltibia 13.231
lfoot 1.71273 -2.29165
ltoes -44.7905
198
root -1.55958 17.7122 32.3234 -2.2514 3.33899 0.566441
lowerback 10.8504 3.79558 0.348166
upperback 1.78892 4.99671 -1.82714
thorax -4.00156 2.46234 -2.79491
lowerneck -7.05194 13.9772 2.92581
upperneck 31.6195 21.5348 -4.33496
head 12.4841 9.56578 0.720455
rclavicle 3.02153e-014 9.54166e-015
rhumerus -37.2891 -3.8421 -76.9904
rradius 57.0671
rwrist -4.16006
rhand -6.3573 -36.8867
rfingers 7.12502
rthumb 19.4888 -65.93
lclavicle 3.02153e-014 9.54166e-015
lhumerus -41.423 16.4268 84.6542
lradius 45.7538
lwrist 8.22158
lhand -17.0937 -16.6991
lfingers 7.12502
lthumb 9.14497 13.0826
rfemur -4.80806 -5.62395 12.3453
rtibia 24.6675
rfoot -8.07191 -6.28767
rtoes 22.0215
lfemur -6.13927 -1.5855 -10.4665
ltibia 14.0182
lfoot 0.405907 -1.34446
ltoes -42.6949
199
root -1.5017 17.6925 32.4793 -2.28446 2.42576 0.406285
lowerback 10.8598 3.84821 0.608504
upperback 1.72147 5.09512 -1.83977
thorax -4.04866 2.50633 -2.96997
lowerneck -6.70881 14.5922 3.27345
upperneck 32.395 22.2443 -3.58951
head 12.7101 9.9803 1.03718
rclavicle -3.79182e-014 -4.77083e-015
rhumerus -36.4926 -3.16365 -76.9916
rradius 59.3987
rwrist -4.67529
rhand -6.60928 -36.1734
rfingers 7.12502
rthumb 19.2466 -65.241
lclavicle -3.79182e-014 -4.77083e-015
lhumerus -42.6834 17.5237 83.2175
lradius 45.0759
lwrist 8.83164
lhand -16.6219 -16.5144
lfingers 7.12502
lthumb 9.60019 13.2468
rfemur -3.84676 -5.04223 12.363
rtibia 23.604
rfoot -8.16654 -6.13023
rtoes 21.6747
lfemur -5.32678 -0.444643 -10.361
ltibia 14.2522
lfoot -0.405363 -1.19914
ltoes -44.7501
200
root -1.44546 17.6728 32.6258 -2.19098 1.74197 0.739431
lowerback 10.5461 3.97294 0.30351
upperback 1.84305 5.22897 -1.84045
thorax -3.7689 2.58176 -2.78701
lowerneck -6.61431 15.0318 3.33815
upperneck 33.0544 22.8347 -3.15346
head 12.9419 10.2703 1.28844
rclavicle 1.04362e-014 9.14409e-015
rhumerus -35.4271 -3.20208 -76.5198
rradius 61.4284
rwrist -5.12797
rhand -6.78909 -35.7791
rfingers 7.12502
rthumb 19.0737 -64.8638
lclavicle 1.04362e-014 9.14409e-015
lhumerus -43.2693 18.2827 82.3737
lradius 43.6028
lwrist 7.90586
lhand -16.227 -17.2289
lfingers 7.12502
lthumb 9.9812 12.5144
rfemur -3.07458 -4.74984 11.7576
rtibia 22.8018
rfoot -8.61837 -6.05717
rtoes 21.6085
lfemur -4.73186 0.33004 -11.0634
ltibia 13.7844
lfoot -0.307664 -1.31896
ltoes -48.1375
201
root -1.40293 17.6637 32.7645 -1.95635 1.28051 1.15678
lowerback 10.5479 4.21276 0.083485
upperback 1.63719 5.51211 -2.02795
thorax -3.97362 2.7198 -2.90806
lowerneck -6.39993 15.2123 3.24349
upperneck 33.7909 22.941 -2.29568
head 13.0707 10.3895 1.62317
rclavicle 1.67973e-014 7.95139e-015
rhumerus -35.02 -4.38572 -75.9519
rradius 63.2238
rwrist -5.43781
rhand -7.02509 -35.4914
rfingers 7.12502
rthumb 18.8467 -64.5984
lclavicle 1.67973e-014 7.95139e-015
lhumerus -43.6311 17.979 81.6132
lradius 41.304
lwrist 5.76649
lhand -15.6872 -18.2014
lfingers 7.12502
lthumb 10.5019 11.5163
rfemur -2.48495 -4.51516 11.1727
rtibia 22.1715
rfoot -9.18723 -6.31222
rtoes 21.7328
lfemur -4.46997 0.255119 -11.8101
ltibia 14.0508
lfoot -0.370773 -0.554649
ltoes -48.6077
202
root -1.37473 17.6656 32.9037 -1.81113 0.871896 1.07959
lowerback 10.5028 4.484 0.250338
upperback 1.4773 5.88858 -2.06255
thorax -4.0776 2.90144 -3.09059
lowerneck -6.22059 15.2741 3.01579
upperneck 34.3822 22.8364 -1.35576
head 13.1039 10.4212 1.96746
rclavicle 6.22693e-014 -3.57812e-015
rhumerus -34.6911 -6.14693 -75.3608
rradius 64.5767
rwrist -5.7195
rhand -7.48999 -35.0078
rfingers 7.12502
rthumb 18.3995 -64.1576
lclavicle 6.22693e-014 -3.57812e-015
lhumerus -43.5979 17.4388 80.9967
lradius 38.7196
lwrist 2.67539
lhand -14.8061 -18.5448
lfingers 7.12502
lthumb 11.3518 11.128
rfemur -1.74976 -3.90062 11.3461
rtibia 21.1836
rfoot -9.1698 -6.90667
rtoes 21.8953
lfemur -4.15276 0.263399 -11.796
ltibia 14.2644
lfoot -0.528684 -0.0342379
ltoes -48.4487
